# xmcd
#
# Track frame offsets:
#	150
#	44215
#	58205
#	93683
#	134950
#	152675
#	161955
#	181480
#	196310
#	221598
#	270903
#
# Disc length: 4276 seconds
#
# Revision: 1
# Processed by: cddbd v1.5.1PL0 Copyright (c) Steve Scherf et al.
# Submitted via: CDex 1.50Beta5
#
DISCID=b110b20b
DTITLE=さまざまなアーティスト - シネマ、クラシック
DYEAR=1900
DGENRE=Classical
TTITLE0=ベニスに死すマーラ
TTITLE1=神〃の黄昏ワーグナー
TTITLE2=イノセント  リスト
TTITLE3=ノスタルジア ヴェルディ
TTITLE4=1900年   ヴェルディ
TTITLE5=シチリヤ物語 モーツァルト
TTITLE6=木靴の樹   バッハ
TTITLE7=愛の嵐     モーツァルト
TTITLE8=そして船は行く ドビッシー
TTITLE9=ボイス、オブ、ムーン シュトラウス
TTITLE10=家族の肖像 モーツァルト
EXTD=
EXTT0=
EXTT1=
EXTT2=
EXTT3=
EXTT4=
EXTT5=
EXTT6=
EXTT7=
EXTT8=
EXTT9=
EXTT10=
PLAYORDER=
